<svg width="24" height="24" viewBox="0 0 24 24" fill="none" xmlns="http://www.w3.org/2000/svg">
<path fill-rule="evenodd" clip-rule="evenodd" d="M5.69865 7.00037L10.0973 2.78504C11.161 1.76566 12.839 1.76566 13.9027 2.78504L18.3013 7.00037H20.847C21.4555 7.00037 21.923 7.53935 21.8369 8.14179L20.368 18.4246C20.1568 19.9026 18.8911 21.0004 17.3981 21.0004H6.6019C5.10895 21.0004 3.84318 19.9026 3.63205 18.4246L2.16307 8.14179C2.07701 7.53935 2.54447 7.00037 3.15302 7.00037H5.69865ZM11.1351 3.86802C11.6186 3.40467 12.3814 3.40467 12.8649 3.86802L16.1334 7.00037H7.86658L11.1351 3.86802ZM3.72952 8.50037L5.11697 18.2125C5.22254 18.9515 5.85542 19.5004 6.6019 19.5004H17.3981C18.1446 19.5004 18.7775 18.9515 18.883 18.2125L20.2705 8.50037H3.72952Z" fill="#2A333E"/>
<path fill-rule="evenodd" clip-rule="evenodd" d="M8 11.25C8.41421 11.25 8.75 11.5858 8.75 12V16C8.75 16.4142 8.41421 16.75 8 16.75C7.58579 16.75 7.25 16.4142 7.25 16V12C7.25 11.5858 7.58579 11.25 8 11.25Z" fill="#2A333E"/>
<path fill-rule="evenodd" clip-rule="evenodd" d="M12 11.25C12.4142 11.25 12.75 11.5858 12.75 12V16C12.75 16.4142 12.4142 16.75 12 16.75C11.5858 16.75 11.25 16.4142 11.25 16V12C11.25 11.5858 11.5858 11.25 12 11.25Z" fill="#2A333E"/>
<path fill-rule="evenodd" clip-rule="evenodd" d="M16 11.25C16.4142 11.25 16.75 11.5858 16.75 12V16C16.75 16.4142 16.4142 16.75 16 16.75C15.5858 16.75 15.25 16.4142 15.25 16V12C15.25 11.5858 15.5858 11.25 16 11.25Z" fill="#2A333E"/>
</svg>
